<svg height="100px" width="600px" xmlns="http://www.w3.org/2000/svg" viewBox="0 0 72.16 14.5"><defs><style>.cls-1{font-size:12px;fill:#231f20;font-family:MicrosoftSansSerif, Microsoft Sans Serif;}.cls-2{fill:#010101;}</style></defs><g id="Layer_2" data-name="Layer 2"><g id="Layer_1-2" data-name="Layer 1"><text class="cls-1" transform="translate(0.65 11.42)">simplydegree</text><g id="Graduation"><polygon class="cls-2" points="0 5.33 0.94 5.33 0.67 4.64 0.67 2.35 0.27 2.14 0.27 4.64 0 5.33"/><path class="cls-2" d="M2.86,3.44,1.21,2.61v.83c0,.56.9,1,2,1s2-.45,2-1V2.61l-1.66.83A.83.83,0,0,1,2.86,3.44Z"/><path class="cls-2" d="M3.4,3.08,6.27,1.65c.1,0,.1-.13,0-.18L3.4,0A.45.45,0,0,0,3,0L.18,1.47c-.1.05-.1.13,0,.18L3,3.08A.45.45,0,0,0,3.4,3.08Z"/></g></g></g></svg>