<svg height="100px" xmlns="http://www.w3.org/2000/svg" viewBox="0 0 17.68 17.68"><defs><style>.cls-1{fill:#fff;}.cls-2{font-size:12px;fill:#231f20;font-family:MicrosoftSansSerif, Microsoft Sans Serif;}.cls-3{fill:#010101;}</style></defs><g id="Layer_2" data-name="Layer 2"><g id="Layer_1-2" data-name="Layer 1"><rect class="cls-1" width="17.68" height="17.68" rx="4.45"/><text class="cls-2" transform="translate(3 14.17)">sd</text><g id="Graduation"><polygon class="cls-3" points="2.34 8.09 3.28 8.09 3.01 7.39 3.01 5.1 2.61 4.89 2.61 7.39 2.34 8.09"/><path class="cls-3" d="M5.2,6.19,3.55,5.36v.83c0,.56.9,1,2,1s2-.45,2-1V5.36l-1.66.83A.83.83,0,0,1,5.2,6.19Z"/><path class="cls-3" d="M5.74,5.83,8.61,4.4c.1-.05.1-.13,0-.18L5.74,2.79a.45.45,0,0,0-.36,0L2.52,4.22c-.1,0-.1.13,0,.18L5.38,5.83A.45.45,0,0,0,5.74,5.83Z"/></g></g></g></svg>