<svg width="299" height="244" viewBox="0 0 299 244" fill="none" xmlns="http://www.w3.org/2000/svg">
<g id="undraw_exams_g-4-ow 1" clip-path="url(#clip0_38_4)">
<path id="Vector" opacity="0.1" d="M291.73 141.445C291.73 141.63 291.73 141.816 291.73 141.998C291.697 145.194 291.507 148.383 291.161 151.563C291.162 151.582 291.162 151.602 291.161 151.621C291.133 151.885 291.103 152.146 291.072 152.411C291.021 152.857 290.966 153.301 290.905 153.748C290.196 159.185 289.022 164.551 287.398 169.788C285.221 176.865 282.144 183.633 278.241 189.927C277.04 191.851 275.762 193.714 274.405 195.515C273.681 196.469 272.942 197.402 272.178 198.319C271.643 198.962 271.097 199.594 270.542 200.215L270.195 200.598C267.271 203.805 264.119 206.796 260.764 209.55C255.289 214.083 249.393 218.027 243.404 221.685C243.063 221.895 242.719 222.102 242.375 222.293C242.351 222.311 242.326 222.326 242.299 222.339C234.159 227.255 225.717 231.691 217.02 235.243C207.498 239.142 197.666 241.976 187.579 243.216C173.518 244.942 159.288 243.538 145.313 241.126C133.69 239.131 122.208 236.391 110.937 232.922L109.082 232.341C108.121 232.036 107.16 231.724 106.201 231.406C100.407 229.491 94.6777 227.364 89.0134 225.025C74.7873 219.172 61.1968 211.883 48.4538 203.272C46.8313 202.182 45.2322 201.068 43.6564 199.93C41.454 198.346 39.2779 196.715 37.1282 195.038L35.8019 194.011C30.1761 189.611 24.9052 184.776 20.038 179.551C13.4915 172.434 7.89715 164.407 4.21931 155.243C3.6393 153.802 3.10795 152.335 2.62528 150.84L2.57965 150.691C2.33628 149.931 2.11117 149.172 1.90431 148.382C1.60011 147.251 1.33342 146.107 1.10425 144.948C1.05558 144.726 1.01299 144.505 0.973446 144.28C0.246362 140.38 -0.0747644 136.416 0.0152001 132.451C0.0912833 128.977 0.498732 125.517 1.23202 122.12C1.98256 118.598 3.13916 115.176 4.67866 111.92C6.06992 108.992 7.84256 106.261 9.95053 103.798C11.4318 102.076 13.0976 100.521 14.9182 99.1612C18.2188 96.7061 21.8784 94.9955 25.6718 93.6433C27.4545 93.0053 29.2615 92.4462 31.0776 91.9266C32.3644 91.5559 33.6572 91.2034 34.944 90.8571L38.7405 89.8331C41.1741 89.1707 43.6078 88.4901 46.0049 87.7547C52.5392 85.7615 58.9427 83.3489 64.8656 79.7514C65.8026 79.1832 66.7578 78.5603 67.713 77.8918C68.9298 77.0471 70.1284 76.1295 71.3148 75.1389C72.5133 74.1362 73.6876 73.0636 74.807 71.9272C74.9804 71.751 75.1508 71.5748 75.3211 71.3955C76.2338 70.4353 77.119 69.4296 77.9404 68.3844C78.3419 67.8739 78.7313 67.3543 79.1024 66.8256C79.6165 66.0933 80.1032 65.3489 80.5535 64.5832C82.8107 60.7547 84.2039 56.5312 84.0397 52.0798C84.0156 51.3464 83.9496 50.6149 83.8419 49.8891C83.4465 47.2061 83.0662 44.5869 82.7863 42.0254C81.6121 31.4302 82.108 21.8225 90.069 12.7952C99.9678 1.574 115.504 -0.713981 129.646 0.182374C170.534 2.76509 207.757 26.0825 240.468 53.8421C243.297 56.2405 246.092 58.6713 248.852 61.1345C249.547 61.7544 250.244 62.3783 250.942 63.0062C256.113 67.6582 261.206 72.4833 265.948 77.6518C266.331 78.0711 266.715 78.4904 267.092 78.9127C267.323 79.1741 267.557 79.4323 267.786 79.6967C269.264 81.3678 270.699 83.0795 272.09 84.8317C275.817 89.4834 279.108 94.4672 281.922 99.7203C286.231 107.964 289.148 116.862 290.555 126.055C291.085 129.393 291.433 132.758 291.599 136.134C291.65 137.127 291.684 138.124 291.702 139.117C291.702 139.436 291.702 139.752 291.702 140.072C291.733 140.533 291.733 140.983 291.73 141.445Z" fill="black"/>
<path id="Vector_2" d="M119.851 136.349L114.983 222.883L119.851 222.946L123.805 135.134L119.851 136.349Z" fill="#3F3D56"/>
<path id="Vector_3" d="M101.903 180.192H41.67V193.257H101.903V180.192Z" fill="black"/>
<path id="Vector_4" d="M105.857 191.735V199.939H43.6382C41.4358 198.355 39.2597 196.724 37.11 195.047V191.735H105.857Z" fill="#3F3D56"/>
<path id="Vector_5" d="M118.281 173.063C118.111 173.85 117.889 174.628 117.654 175.403C116.964 177.642 116.133 179.851 115.972 182.179C115.756 185.254 116.58 188.83 114.451 191.063C113.903 191.641 113.189 192.072 112.699 192.689C112.623 192.786 112.554 192.887 112.492 192.993C112.054 193.716 112.002 194.597 111.996 195.424C112.001 197.186 112.116 198.947 112.34 200.695C113.061 206.712 114.484 212.74 112.614 218.419C112.275 219.404 111.88 220.369 111.43 221.309C110.518 223.314 109.523 225.292 109.225 227.465C109.006 229.075 109.073 230.734 109.061 232.372C108.099 232.066 107.139 231.754 106.18 231.436C100.386 229.522 94.6564 227.395 88.9921 225.055C89.0073 224.973 89.0225 224.888 89.0347 224.806C89.4697 222.102 88.8735 219.337 88.1495 216.699C86.6284 211.111 84.4746 205.578 83.2 199.951C82.6867 197.753 82.35 195.518 82.1931 193.266C82.1566 192.762 82.1353 192.254 82.1323 191.747C82.1171 191.085 82.1323 190.422 82.1597 189.754C82.2235 188.42 82.2813 186.837 81.2136 186.026C80.6265 185.585 79.8507 185.509 79.1663 185.242C77.846 184.728 76.9425 183.537 75.8961 182.583C75.3969 182.099 74.7874 181.744 74.1201 181.548C73.4529 181.352 72.7479 181.322 72.0661 181.459C65.2276 183.024 60.2021 188.818 53.8382 191.747C53.5918 191.863 53.3454 191.972 53.0959 192.075C52.2727 192.376 51.4892 192.776 50.7627 193.266C50.2521 193.62 49.8819 194.142 49.7162 194.74C49.555 195.384 49.6949 196.059 49.774 196.721C49.902 197.798 49.8558 198.889 49.6371 199.951C49.5546 200.363 49.4459 200.769 49.3116 201.166C49.0682 201.886 48.7427 202.591 48.4325 203.293C46.81 202.204 45.2109 201.089 43.6351 199.951C41.4327 198.367 39.2566 196.736 37.1069 195.059L35.8019 194.011C30.1761 189.611 24.9052 184.776 20.038 179.551C20.6859 177.727 21.6229 176.032 22.0731 174.163C22.3286 173.091 22.4229 171.976 22.7758 170.933C23.1827 169.853 23.7487 168.839 24.455 167.925C27.0418 164.322 30.2005 161.165 33.8063 158.579C37.5754 155.881 41.9286 153.717 45.3204 150.654C46.6969 149.451 47.8835 148.046 48.8401 146.489C48.8979 146.395 48.9526 146.294 49.0013 146.185C49.2661 145.635 49.4495 145.049 49.5458 144.447C49.7892 143.086 49.7527 141.591 49.8744 140.284C54.0064 140.999 58.2188 141.125 62.3863 140.661C67.2384 140.117 71.984 138.771 76.8361 138.248C77.2011 138.206 77.5692 138.172 77.9373 138.142C79.4918 138.017 81.0493 137.99 82.6099 138.008C83.9149 138.008 85.22 138.066 86.525 138.109L100.893 138.595C102.484 138.649 104.108 138.71 105.59 139.291C107.348 139.98 108.756 141.354 109.885 142.864C110.028 143.058 110.171 143.253 110.305 143.453C111.233 144.806 111.978 146.277 112.519 147.826C112.577 147.984 112.632 148.13 112.684 148.303C112.82 148.725 112.939 149.15 113.046 149.582C113.128 149.919 113.201 150.256 113.268 150.597C113.602 152.28 113.8 154 114.329 155.625C114.366 155.744 114.405 155.862 114.448 155.978C115.084 157.758 116.139 159.354 116.936 161.064C117.511 162.303 117.95 163.6 118.244 164.932C118.84 167.609 118.853 170.382 118.281 173.063Z" fill="#35323E"/>
<path id="Vector_6" d="M74.6093 64.3249C73.3256 63.304 71.4638 64.0514 69.9611 64.7108C68.7011 65.2666 67.4041 65.7346 66.0794 66.1115C65.8083 66.2157 65.5144 66.2461 65.2276 66.1996C64.6192 66.0538 64.3637 65.3337 63.9104 64.8961C63.1225 64.1395 61.8327 64.3188 60.8167 64.729C59.8006 65.1392 58.7967 65.7317 57.7077 65.6405C56.5456 65.5494 55.5357 64.6925 54.3614 64.6652C52.2928 64.6166 50.5558 67.1628 48.5998 66.4883C47.4073 66.0781 46.4704 64.5285 45.2961 64.969C44.3835 65.3154 44.3014 66.5764 43.7508 67.3998C43.1028 68.36 41.8404 68.6304 40.7604 69.0558C37.3564 70.3988 35.1022 74.1878 35.5464 77.8158C35.7928 79.8182 36.7632 81.6534 37.405 83.5646C39.3094 89.122 38.6553 95.3904 41.0555 100.75C41.3597 100.465 41.5301 100.358 41.8251 100.076C41.0662 101.648 40.9199 103.446 41.4145 105.12C41.667 105.961 42.0776 106.745 42.3879 107.569C42.7103 108.492 42.9704 109.436 43.1667 110.394L45.8133 122.056C46.8476 126.614 47.8849 131.172 48.0644 135.839C48.1761 138.874 47.9435 141.911 47.3708 144.894C52.1651 144.1 56.5517 141.977 61.4099 142.004C63.1925 142.004 64.9599 142.308 66.7274 142.551C71.8804 143.271 77.0782 143.623 82.2814 143.605C83.0906 143.651 83.901 143.538 84.6663 143.271C85.3356 142.985 85.8832 142.478 86.5159 142.11C87.754 141.381 89.2537 141.199 90.6805 141.199C97.1874 141.08 103.457 143.459 109.921 144.298C112.474 138.947 112.626 132.536 110.667 126.942C110.086 125.28 109.304 123.661 109.073 121.913C108.98 120.839 108.955 119.761 109 118.683C108.99 115.926 108.492 113.192 107.53 110.607C107.153 109.595 106.7 108.565 106.739 107.487C106.779 106.408 107.311 105.402 107.835 104.448C108.896 102.504 109.964 100.541 111.464 98.8999C113 97.2044 114.923 95.913 116.824 94.646L121.518 91.4981C120.876 87.4478 120.048 83.1818 118.33 79.4566C116.611 75.7314 114.04 72.307 110.563 70.1284C109.391 69.424 108.164 68.8144 106.895 68.3053C105.118 67.5578 103.268 66.8985 101.343 66.7861C99.1526 66.6615 96.9958 67.2479 94.8329 67.6125C88.0248 68.758 80.012 68.6183 74.6093 64.3249Z" fill="black"/>
<path id="Vector_7" d="M125.935 134.611L123.702 137.428L119.492 142.736L114.624 148.871L113.265 150.585H110.627L45.3174 150.661L4.41706 150.706H2.59183C2.34846 149.947 2.12335 149.187 1.91649 148.397C1.61229 147.267 1.3456 146.122 1.11643 144.963C1.06776 144.742 1.02517 144.52 0.985626 144.295L15.8247 134.605L21.4039 134.575L38.4698 134.478L48.0005 134.423H49.7406H50.8326L57.1844 134.389L105.596 134.113L108.072 134.098H109.146L111.99 134.083L122.573 134.022L124.605 133.25L124.754 133.408L125.935 134.611Z" fill="#3F3D56"/>
<path id="Vector_8" d="M125.022 133.092L124.77 133.396L123.109 135.35L119.689 139.382L112.519 147.826L49.0013 146.206L1.10425 144.991C1.05558 144.769 1.01299 144.547 0.973446 144.322C0.246362 140.423 -0.0747644 136.459 0.0152001 132.493L5.32662 129.777L6.54344 129.151L16.0133 124.29L24.3242 120.036L46.0019 122.849L50.8022 123.472L52.9742 123.752L56.1532 124.165L56.4209 124.201L106.271 130.658L111.78 131.372L115.014 131.792L124.98 133.086L125.022 133.092Z" fill="#504F60"/>
<path id="Vector_9" d="M114.679 147.677L114.627 148.871L114.323 155.613L112.687 192.683L112.34 200.695L111.427 221.309L110.913 232.952L109.057 232.372C108.096 232.066 107.136 231.754 106.177 231.436L110.627 150.612L110.721 148.916L112.681 148.309L114.679 147.677Z" fill="#3F3D56"/>
<path id="Vector_10" d="M4.55699 147.589L4.4201 150.709L4.21933 155.267C3.63931 153.827 3.10797 152.359 2.62529 150.864L2.57966 150.715C2.3363 149.956 2.11119 149.196 1.90433 148.406L4.55699 147.589Z" fill="#3F3D56"/>
<path id="Vector_11" d="M84.1066 101.647C91.8349 101.647 98.1 93.2123 98.1 82.808C98.1 72.4037 91.8349 63.9694 84.1066 63.9694C76.3782 63.9694 70.1132 72.4037 70.1132 82.808C70.1132 93.2123 76.3782 101.647 84.1066 101.647Z" fill="#A1616A"/>
<path id="Vector_12" opacity="0.1" d="M84.1066 101.647C91.8349 101.647 98.1 93.2123 98.1 82.808C98.1 72.4037 91.8349 63.9694 84.1066 63.9694C76.3782 63.9694 70.1132 72.4037 70.1132 82.808C70.1132 93.2123 76.3782 101.647 84.1066 101.647Z" fill="black"/>
<path id="Vector_13" d="M86.0839 90.86C96.8364 90.86 105.553 82.1535 105.553 71.4136C105.553 60.6737 96.8364 51.9673 86.0839 51.9673C75.3314 51.9673 66.6148 60.6737 66.6148 71.4136C66.6148 82.1535 75.3314 90.86 86.0839 90.86Z" fill="#A1616A"/>
<path id="Vector_14" d="M86.4703 41.442C85.2816 41.5367 84.1013 41.7164 82.9384 41.9799C79.8599 42.7273 77.1981 44.3863 74.6063 46.015C73.4442 46.7473 72.2487 47.5099 71.5277 48.5855C70.2318 50.515 70.7337 52.9701 70.0067 55.1122C69.6295 56.2122 68.9359 57.1997 68.3488 58.2236C66.7335 61.0312 65.8878 64.1153 65.0573 67.169C64.8869 67.801 64.8382 68.6578 65.5288 68.9009C65.9264 68.9834 66.3401 68.9365 66.7091 68.7672C68.8903 68.0471 71.6616 67.8405 73.2799 69.302C74.8983 70.7635 74.7614 73.3553 76.687 74.4674C78.8925 75.7527 82.3361 74.2 84.3378 75.7162C85.1956 76.3665 85.5059 77.4087 86.2086 78.1926C87.8453 80.0157 90.9938 79.9276 93.613 79.5599C95.1158 79.3472 96.9592 79.2044 97.8719 80.2588C98.3099 80.7571 98.4346 81.4408 98.9427 81.8905C99.8553 82.7048 101.525 82.2915 102.417 81.456C103.308 80.6204 103.734 79.4901 104.476 78.5512C105.921 76.7281 108.461 75.7345 109.952 73.9326C111.199 72.4134 111.576 70.5113 111.917 68.6761L113.186 61.8729C113.7 59.1139 114.168 56.0997 112.614 53.6689C112.06 52.7939 111.266 52.0403 110.788 51.1348C110.469 50.5271 110.29 49.886 109.918 49.3117C109.478 48.7135 108.952 48.1832 108.358 47.7378L105.355 45.2554C104.329 44.3578 103.231 43.5449 102.073 42.8246C97.7867 40.33 91.368 40.9863 86.4703 41.442Z" fill="#464353"/>
<path id="Vector_15" d="M22.3439 91.5346C21.6229 92.3003 20.9567 93.1268 20.184 93.8439C19.5043 94.4477 18.7935 95.0156 18.0546 95.5454C16.8621 96.4367 15.696 97.3594 14.5562 98.3135C13.3671 99.2525 12.2912 100.326 11.3499 101.513C9.72544 103.692 8.95581 106.402 7.43478 108.653C6.0902 110.65 4.195 112.227 2.82912 114.208C2.2299 115.041 1.78483 115.974 1.51495 116.964C1.31351 117.922 1.22267 118.899 1.24421 119.878C1.21683 121.482 1.1925 123.105 1.52104 124.675C1.84958 126.246 2.57054 127.79 3.80561 128.82C4.95247 129.777 6.43395 130.218 7.885 130.582C8.63335 130.768 9.44253 130.941 10.1544 130.646C10.6753 130.383 11.1274 130.002 11.4746 129.534L15.1768 125.28C17.653 122.424 20.2266 119.507 23.6246 117.836C24.6893 117.316 25.8118 116.924 26.8796 116.42C31.4061 114.241 34.6064 109.781 35.8475 104.919C36.1517 103.731 36.3464 102.519 36.5442 101.306L37.0796 97.9823C37.1207 97.8157 37.1207 97.6415 37.0796 97.4749C36.9957 97.2875 36.8608 97.1274 36.6902 97.013C34.1115 94.9329 31.697 92.6574 29.4683 90.2068C28.939 89.6234 28.4432 88.8243 27.8317 88.3351C27.0651 87.7274 27.1229 87.773 26.2012 88.3351C24.7833 89.2318 23.4868 90.3072 22.3439 91.5346Z" fill="#A1616A"/>
<path id="Vector_16" d="M47.6689 113.655C47.6381 113.584 47.5934 113.521 47.5374 113.468C47.4813 113.415 47.4152 113.374 47.3429 113.347C47.2706 113.321 47.1937 113.309 47.1167 113.312C47.0397 113.316 46.9643 113.335 46.8949 113.369C46.8256 113.403 46.7638 113.45 46.7132 113.508C46.6626 113.566 46.6243 113.634 46.6005 113.707C46.5768 113.78 46.5681 113.857 46.575 113.934C46.5819 114.011 46.6042 114.085 46.6407 114.153L46.3365 114.302L55.4079 132.873L57.0475 132.074L47.9762 113.491L47.6689 113.655Z" fill="#3F3D56"/>
<path id="Vector_17" opacity="0.04" d="M22.3439 91.5346C21.6229 92.3003 20.9567 93.1268 20.184 93.8439C19.5043 94.4477 18.7935 95.0156 18.0546 95.5454C16.8621 96.4367 15.696 97.3594 14.5562 98.3135C13.3671 99.2525 12.2912 100.326 11.3499 101.513C9.72544 103.692 8.95581 106.402 7.43478 108.653C6.0902 110.65 4.195 112.227 2.82912 114.208C2.2299 115.041 1.78483 115.974 1.51495 116.964C1.31351 117.922 1.22267 118.899 1.24421 119.878C1.21683 121.482 1.1925 123.105 1.52104 124.675C1.84958 126.246 2.57054 127.79 3.80561 128.82C4.95247 129.777 6.43395 130.218 7.885 130.582C8.63335 130.768 9.44253 130.941 10.1544 130.646C10.6753 130.383 11.1274 130.002 11.4746 129.534L15.1768 125.28C17.653 122.424 20.2266 119.507 23.6246 117.836C24.6893 117.316 25.8118 116.924 26.8796 116.42C31.4061 114.241 34.6064 109.781 35.8475 104.919C36.1517 103.731 36.3464 102.519 36.5442 101.306L37.0796 97.9823C37.1207 97.8157 37.1207 97.6415 37.0796 97.4749C36.9957 97.2875 36.8608 97.1274 36.6902 97.013C34.1115 94.9329 31.697 92.6574 29.4683 90.2068C28.939 89.6234 28.4432 88.8243 27.8317 88.3351C27.0651 87.7274 27.1229 87.773 26.2012 88.3351C24.7833 89.2318 23.4868 90.3072 22.3439 91.5346Z" fill="black"/>
<path id="Vector_18" d="M127.215 125.76C127.185 127.699 127.109 129.695 126.303 131.463C125.956 132.229 125.418 132.983 124.611 133.235C124.124 133.347 123.619 133.366 123.124 133.29C117.156 132.766 111.142 133.242 105.331 134.699C106.882 131.6 105.991 127.884 106.42 124.444C106.539 123.506 106.755 122.582 106.837 121.64C107.141 118.298 105.708 115.052 105.051 111.753C104.481 108.896 104.481 105.955 105.051 103.099C105.163 102.364 105.416 101.657 105.796 101.018C106.242 100.396 106.828 99.8867 107.506 99.5319C109.97 98.1311 112.875 97.9701 115.644 98.1554C117.508 98.28 121.247 98.1038 122.801 99.2493C124.502 100.504 125.04 104.719 125.5 106.666C126.188 109.653 126.655 112.687 126.899 115.742C127.197 119.072 127.261 122.418 127.215 125.76Z" fill="#A1616A"/>
<path id="Vector_19" d="M18.2462 132.487L29.1976 139.78L78.4788 137.957L45.9289 132.487H18.2462Z" fill="white"/>
<path id="Vector_20" d="M32.6868 74.5464C30.889 76.1294 29.3649 77.9951 27.6614 79.6814C25.3251 81.9968 22.6694 83.9657 20.0258 85.9255C20.9737 86.1902 21.8364 86.6961 22.5297 87.3939C23.2229 88.0916 23.7228 88.9572 23.9805 89.906C24.0961 90.3526 24.1539 90.8175 24.2847 91.2551C24.5889 92.2912 25.2581 93.1845 25.9761 93.9897C29.0607 97.4627 33.3774 100.033 35.1965 104.321C35.2559 104.529 35.3846 104.711 35.5616 104.837C35.7096 104.903 35.874 104.922 36.0331 104.892C37.6788 104.719 38.9382 103.394 39.9878 102.105C42.178 99.3709 44.0793 96.3506 45.1592 93.0143C46.2392 89.6781 46.4126 85.9893 45.2353 82.6835C44.6482 81.0366 43.7416 79.5234 42.8412 78.0255C42.0523 76.7149 41.2654 75.4063 40.4806 74.0997C40.0699 73.41 39.5467 72.0092 38.7405 71.6689C37.0005 70.9215 33.8033 73.4313 32.6868 74.5464Z" fill="black"/>
<path id="Vector_21" d="M122.287 94.1841L124.876 100.261C122.058 99.2775 119.046 98.9781 116.089 99.3876C113.132 99.7971 110.315 100.904 107.871 102.616C106.396 103.67 105.042 104.995 104.376 106.678C104.047 106.741 103.707 106.709 103.396 106.587C103.084 106.465 102.813 106.258 102.614 105.989C102.225 105.443 101.999 104.798 101.963 104.129C101.723 101.795 102.608 99.5075 103.484 97.3259C103.892 96.3049 104.312 95.2627 105.036 94.4332C105.76 93.6037 106.721 93.0568 107.682 92.5403C110.749 90.8462 113.961 89.4287 117.28 88.3046C118.679 87.8519 120.146 87.861 120.931 89.1675C121.84 90.7263 121.575 92.5251 122.287 94.1841Z" fill="black"/>
<path id="Vector_22" d="M18.3101 112.418C18.958 112.935 19.5269 113.545 20.1931 114.038C20.8977 114.526 21.6474 114.946 22.4321 115.293L25.4315 116.733C26.361 117.215 27.3336 117.61 28.3367 117.912C29.6204 118.255 30.9681 118.288 32.2579 118.608C33.8854 119.009 35.3729 119.844 36.9761 120.327C38.5793 120.81 40.4562 120.889 41.7947 119.884C42.6313 119.255 43.264 118.216 44.3014 118.061C44.9706 117.972 45.6155 118.295 46.2118 118.608L54.0177 122.706C55.0702 123.259 56.1836 123.873 56.7342 124.928C57.2848 125.982 56.9137 127.583 55.7547 127.857C55.3507 127.903 54.9445 127.926 54.5378 127.927C54.1363 127.975 53.6982 128.212 53.6435 128.616C53.6415 128.867 53.7077 129.114 53.8351 129.33C54.185 130.133 54.2884 131.093 53.8808 131.871C53.4731 132.648 52.4723 133.132 51.6722 132.782C51.8091 133.958 50.5284 134.781 49.3877 135.094C46.5099 135.881 43.4587 135.398 40.517 134.9C39.3611 134.705 38.1868 134.505 37.1343 133.988C36.6293 133.742 36.1608 133.426 35.6498 133.198C34.2474 132.575 32.6533 132.658 31.1202 132.685C24.0291 132.809 16.999 131.497 10.0266 130.19C8.73371 129.947 7.40434 129.689 6.30007 128.975C4.17064 127.589 3.37971 124.745 3.72954 122.229C4.07938 119.714 5.35704 117.435 6.6134 115.223L8.2409 112.357C8.45365 111.918 8.75144 111.526 9.11701 111.203C11.5111 109.377 16.2597 110.771 18.3101 112.418Z" fill="#A1616A"/>
<path id="Vector_23" opacity="0.04" d="M18.3101 112.418C18.958 112.935 19.5269 113.545 20.1931 114.038C20.8977 114.526 21.6474 114.946 22.4321 115.293L25.4315 116.733C26.361 117.215 27.3336 117.61 28.3367 117.912C29.6204 118.255 30.9681 118.288 32.2579 118.608C33.8854 119.009 35.3729 119.844 36.9761 120.327C38.5793 120.81 40.4562 120.889 41.7947 119.884C42.6313 119.255 43.264 118.216 44.3014 118.061C44.9706 117.972 45.6155 118.295 46.2118 118.608L54.0177 122.706C55.0702 123.259 56.1836 123.873 56.7342 124.928C57.2848 125.982 56.9137 127.583 55.7547 127.857C55.3507 127.903 54.9445 127.926 54.5378 127.927C54.1363 127.975 53.6982 128.212 53.6435 128.616C53.6415 128.867 53.7077 129.114 53.8351 129.33C54.185 130.133 54.2884 131.093 53.8808 131.871C53.4731 132.648 52.4723 133.132 51.6722 132.782C51.8091 133.958 50.5284 134.781 49.3877 135.094C46.5099 135.881 43.4587 135.398 40.517 134.9C39.3611 134.705 38.1868 134.505 37.1343 133.988C36.6293 133.742 36.1608 133.426 35.6498 133.198C34.2474 132.575 32.6533 132.658 31.1202 132.685C24.0291 132.809 16.999 131.497 10.0266 130.19C8.73371 129.947 7.40434 129.689 6.30007 128.975C4.17064 127.589 3.37971 124.745 3.72954 122.229C4.07938 119.714 5.35704 117.435 6.6134 115.223L8.2409 112.357C8.45365 111.918 8.75144 111.526 9.11701 111.203C11.5111 109.377 16.2597 110.771 18.3101 112.418Z" fill="black"/>
<path id="Vector_24" d="M111.172 117.669C109.587 118.416 107.768 118.489 106.113 119.063C104.458 119.638 103.052 120.671 101.534 121.512C97.5798 123.718 93.0167 124.551 88.5358 125.344C85.8193 125.83 83.0601 126.316 80.3223 126.201C76.6171 126.043 73.0579 124.809 69.4682 123.879C65.8786 122.95 62.0487 122.324 58.4925 123.369C56.6355 123.934 54.9379 124.928 53.5373 126.27C52.1367 127.612 51.0725 129.266 50.4311 131.096C49.6858 133.28 49.5824 135.635 49.7253 137.938C50.4737 138.488 51.5202 137.726 51.9278 136.89C52.3354 136.055 52.5575 135.031 53.3484 134.544C54.7204 135.009 55.055 136.835 56.1867 137.738C56.8924 138.303 57.8354 138.452 58.7329 138.58L63.3568 139.236C64.4702 139.394 65.763 139.5 66.5692 138.716C66.9616 138.336 67.1776 137.805 67.5365 137.398C68.2727 136.583 69.5017 136.443 70.5968 136.553C74.0161 136.893 77.2224 139.108 80.6174 138.583C81.7855 138.403 82.8715 137.905 83.9849 137.513C90.5831 135.186 97.9144 136.601 104.78 135.268C107.4 134.76 109.921 133.861 112.413 132.913C113.767 132.399 115.135 131.861 116.291 130.992C117.387 130.151 118.25 129.046 118.801 127.781C119.353 126.516 119.573 125.132 119.443 123.758C119.188 121.664 118.143 119.747 116.52 118.398C115.984 117.942 115.282 117.07 114.64 116.784C113.414 116.247 112.212 117.179 111.172 117.669Z" fill="#A1616A"/>
<g id="Group" opacity="0.1">
<path id="Vector_25" opacity="0.1" d="M102.283 78.8519C101.775 78.4022 101.65 77.7185 101.212 77.2202C100.299 76.1658 98.456 76.3086 96.9532 76.5213C94.334 76.889 91.1733 76.9741 89.5488 75.154C88.8461 74.3701 88.5358 73.3309 87.678 72.6776C85.6763 71.1584 82.2327 72.7141 80.0272 71.4288C78.1016 70.3076 78.2263 67.7067 76.6201 66.2634C75.0139 64.8201 72.2304 65.0085 70.0493 65.7286C69.6802 65.8979 69.2666 65.9448 68.869 65.8623C68.1784 65.6192 68.2271 64.7624 68.3974 64.1303C69.2279 61.0767 70.0736 57.9926 71.6889 55.185C72.2761 54.1611 72.9696 53.1735 73.3469 52.0736C74.007 50.1472 73.6693 47.9686 74.5363 46.1455C73.6054 46.7532 72.7111 47.4156 72.1361 48.2725C70.8402 50.2019 71.3421 52.657 70.6151 54.7991C70.2379 55.8991 69.5443 56.8866 68.9572 57.9106C67.3419 60.7181 66.4962 63.8022 65.6657 66.8559C65.4953 67.4879 65.4466 68.3447 66.1372 68.5878C66.5348 68.6703 66.9485 68.6235 67.3175 68.4541C69.4987 67.734 72.27 67.5274 73.8883 68.9889C75.5067 70.4504 75.3698 73.0423 77.2954 74.1543C79.5009 75.4396 82.9445 73.887 84.9462 75.4032C85.8041 76.0534 86.1143 77.0956 86.8171 77.8795C88.4537 79.7026 91.6022 79.6145 94.2214 79.2468C95.7242 79.0342 97.5677 78.8914 98.4803 79.9457C98.9183 80.444 99.0431 81.1277 99.5511 81.5774C100.464 82.3917 102.134 81.9785 103.025 81.1429C103.597 80.5484 104.086 79.8801 104.479 79.1557C103.688 79.3957 102.846 79.3593 102.283 78.8519Z" fill="black"/>
<path id="Vector_26" opacity="0.1" d="M107.825 75.5094C107.63 75.7615 107.448 76.0242 107.281 76.2964C108.449 75.4638 109.687 74.686 110.56 73.6256C110.787 73.3511 110.99 73.0584 111.169 72.7505C109.955 73.6195 108.689 74.4186 107.825 75.5094Z" fill="black"/>
</g>
<path id="Vector_27" d="M169.284 135.678L170.197 222.882L174.455 222.275L173.543 135.678H169.284Z" fill="#3F3D56"/>
<path id="Vector_28" d="M194.837 151.478L195.75 238.683L200.009 238.075L199.096 151.478H194.837Z" fill="#3F3D56"/>
<path id="Vector_29" d="M274.396 195.53L274.378 193.856V192.859L274.216 177.521L273.964 153.541L273.921 151.472H269.662L269.684 153.465L269.818 166.309L269.875 171.869L269.924 176.372L270.003 184.157L270.052 188.748V189.234L270.116 195.269L270.17 200.589L270.517 200.206C271.075 199.584 271.621 198.952 272.154 198.31L274.396 195.53Z" fill="#3F3D56"/>
<path id="Vector_30" d="M190.122 165.607L187.688 169.241L190.122 185.798L210.808 191.452H244.27L264.348 192.665L273.912 186.126L272.257 174.896L264.956 165.607H190.122Z" fill="black"/>
<path id="Vector_31" d="M187.688 169.241L186.472 179.335C186.472 179.335 180.083 199.125 231.494 197.912C282.905 196.7 274.083 192.662 274.083 192.662L273.778 180.951C273.778 180.951 275.57 186.494 249.442 185.743C223.314 184.993 198.944 182.568 198.944 182.568C198.944 182.568 189.818 184.181 187.688 169.241Z" fill="#3F3D56"/>
<path id="Vector_32" d="M230.52 78.7667C227.588 80.1006 225.367 82.6864 223.88 85.5456C222.392 88.4048 221.556 91.5436 220.731 94.6611C219.861 97.9488 218.988 101.246 218.538 104.615C217.735 110.607 218.337 116.906 221.093 122.287C223.849 127.668 228.942 132.01 234.904 133.046C237.207 133.451 239.574 133.368 241.901 133.128C246.107 132.684 250.251 131.771 254.254 130.409C258.437 128.996 262.791 126.821 264.652 122.813C265.732 120.488 265.823 117.839 265.772 115.28C265.628 108.307 264.574 101.383 262.635 94.6824C262.073 92.7377 261.419 90.7779 260.226 89.1402C259.034 87.5024 257.403 86.3022 255.739 85.1901C248.624 80.4045 239.272 74.7924 230.52 78.7667Z" fill="#FBBEBE"/>
<path id="Vector_33" opacity="0.05" d="M230.52 78.7667C227.588 80.1006 225.367 82.6864 223.88 85.5456C222.392 88.4048 221.556 91.5436 220.731 94.6611C219.861 97.9488 218.988 101.246 218.538 104.615C217.735 110.607 218.337 116.906 221.093 122.287C223.849 127.668 228.942 132.01 234.904 133.046C237.207 133.451 239.574 133.368 241.901 133.128C246.107 132.684 250.251 131.771 254.254 130.409C258.437 128.996 262.791 126.821 264.652 122.813C265.732 120.488 265.823 117.839 265.772 115.28C265.628 108.307 264.574 101.383 262.635 94.6824C262.073 92.7377 261.419 90.7779 260.226 89.1402C259.034 87.5024 257.403 86.3022 255.739 85.1901C248.624 80.4045 239.272 74.7924 230.52 78.7667Z" fill="black"/>
<path id="Vector_34" d="M227.226 117.012C228.075 118.178 229.101 119.203 230.268 120.051C233.164 122.05 236.881 122.321 240.398 122.43C243.221 122.515 246.458 122.354 248.228 120.154C249.025 119.164 249.384 117.9 249.707 116.669C251.697 109.113 253.11 101.416 253.935 93.6463L261.99 93.6737C265.477 108.584 265.191 124.083 264.886 139.394L264.445 161.721L259.256 161.171C246.932 159.867 234.591 158.564 222.2 158.339C214.941 158.206 207.679 158.445 200.444 159.056L211.745 125.493C213.211 121.129 214.693 116.708 215.036 112.123C215.532 105.472 213.664 98.4502 216.253 92.2972C216.46 91.802 216.722 91.2885 217.193 91.0302C217.665 90.7719 218.261 90.8357 218.802 90.9056C219.825 91.0423 222.949 90.9056 223.691 91.5589C224.786 92.5069 224.062 92.6497 223.676 94.1781C222.985 96.9127 222.331 99.4438 222.34 102.294C222.349 107.468 223.956 112.932 227.226 117.012Z" fill="black"/>
<path id="Vector_35" d="M274.396 195.53C275.753 193.731 277.031 191.869 278.232 189.942C277.624 188.642 276.954 187.372 276.422 186.044C275.607 184.008 275.138 181.851 274.676 179.709C274.518 178.979 274.36 178.25 274.204 177.521C272.501 169.587 270.901 161.541 270.569 153.499C270.539 152.83 270.519 152.162 270.511 151.493C270.511 151.396 270.511 151.302 270.511 151.189C270.511 150.457 270.511 149.725 270.511 148.996C270.548 147.172 270.663 145.334 270.873 143.505C270.913 143.146 270.958 142.788 271.007 142.429C271.007 142.35 271.025 142.274 271.038 142.195L291.723 141.442L293.463 141.378C294.659 141.335 295.924 141.269 296.91 140.591C298.568 139.455 298.763 137.124 298.735 135.122C298.635 130.061 298.06 125.02 297.02 120.066C296.235 116.341 295.115 112.534 292.603 109.671C290.54 107.32 287.553 105.609 286.479 102.683C286.08 101.595 285.98 100.401 285.463 99.3618C284.946 98.3226 284.091 97.5599 283.285 96.7578C280.448 93.9498 278.094 90.6933 276.318 87.1197C275.086 84.6403 273.751 81.9056 272.142 80.1919C272.063 80.1038 271.984 80.0218 271.901 79.9428C270.533 78.5906 268.966 77.9981 267.11 78.9188C266.777 79.086 266.459 79.2834 266.161 79.5083C265.5 80.013 264.895 80.5875 264.357 81.222C262.483 83.3747 260.838 85.7169 259.45 88.2105C258.474 89.9661 257.636 91.7947 256.944 93.6798C256.397 95.1691 255.945 96.6914 255.59 98.2375C255.328 99.383 255.121 100.541 254.957 101.701C254.349 106.065 254.349 110.513 254.434 114.931C254.525 118.99 254.705 123.059 255.073 127.103C255.164 128.082 255.265 129.059 255.377 130.035C255.6 131.966 255.876 133.89 256.204 135.808C256.335 136.541 256.469 137.273 256.618 138.002C256.655 138.197 256.694 138.391 256.734 138.583L256.752 138.665C257.154 140.36 257.466 142.075 257.686 143.803C257.71 144.019 257.729 144.235 257.741 144.45C257.792 145.443 257.784 146.438 257.716 147.431C257.646 148.604 257.537 149.773 257.482 150.946C257.482 151.153 257.482 151.356 257.461 151.554C257.446 152.146 257.461 152.739 257.461 153.331C257.523 154.749 257.691 156.16 257.966 157.552C258.479 160.141 259.365 162.643 260.597 164.978C260.713 165.197 260.831 165.412 260.95 165.625C262.492 168.378 264.439 170.903 265.866 173.72C267.097 176.254 268.016 178.928 268.604 181.684C268.807 182.593 268.999 183.505 269.182 184.418C269.465 185.877 269.717 187.347 269.976 188.818C270 188.964 270.028 189.122 270.055 189.256C270.399 191.206 270.761 193.148 271.226 195.053C271.497 196.162 271.801 197.256 272.157 198.331L274.396 195.53Z" fill="#464353"/>
<path id="Vector_36" d="M270.332 171.581C270.332 171.854 270.313 172.128 270.301 172.404C270.247 173.737 270.124 175.067 269.933 176.387C269.681 178.19 269.24 179.961 268.616 181.671C268.203 182.796 267.677 183.876 267.046 184.895C266.487 185.8 265.832 186.643 265.093 187.408C263.268 189.304 260.64 189.909 258.097 190.708C256.926 191.046 255.796 191.508 254.723 192.084C254.531 192.191 254.343 192.306 254.16 192.428L250.978 194.533C249.987 195.187 248.973 195.864 248.292 196.833C248.18 196.998 248.079 197.17 247.988 197.347C247.557 198.239 247.242 199.183 247.051 200.155C245.396 207.04 243.738 213.931 242.603 220.92C242.527 221.381 242.454 221.846 242.375 222.311L242.348 222.457C242.334 222.423 242.318 222.389 242.299 222.357C234.159 227.273 225.717 231.709 217.02 235.261L215.131 219.461C214.934 218.177 214.869 216.876 214.936 215.578C215.115 213.533 215.949 211.594 216.174 209.556C216.387 207.56 216.01 205.545 215.088 203.761C214.729 203.068 214.279 202.388 214.197 201.613C214.115 200.838 214.562 200.13 215.341 200.051C215.949 199.377 215.998 198.456 215.818 197.545C215.723 197.069 215.58 196.603 215.392 196.156C214.875 194.886 214.221 193.503 214.665 192.206C214.783 191.971 214.835 191.708 214.817 191.446C214.821 191.43 214.821 191.414 214.817 191.398C214.714 191.057 214.309 190.908 214.099 190.62C213.704 190.082 214.099 189.35 214.343 188.73C214.579 188.064 214.717 187.367 214.75 186.661C214.784 186.269 214.808 185.874 214.851 185.485C214.91 184.958 215.005 184.437 215.134 183.923C215.873 181.012 217.65 178.471 220.132 176.776C221.315 175.98 222.632 175.4 223.84 174.649C225.077 173.816 226.258 172.903 227.375 171.915C230.054 169.687 232.839 167.586 235.731 165.613C238.841 163.492 242.062 161.538 245.381 159.761C246.091 159.378 246.8 159.005 247.51 158.643C248.283 158.238 249.061 157.854 249.844 157.491C252.35 156.297 255.194 156.744 257.966 157.54C259.128 157.871 260.275 158.266 261.382 158.624C262.463 158.976 263.504 159.442 264.485 160.016C266.94 161.456 268.969 163.583 269.812 166.269C269.813 166.286 269.813 166.304 269.812 166.321C270.347 168.004 270.38 169.809 270.332 171.581Z" fill="#F86D70"/>
<path id="Vector_37" opacity="0.1" d="M270.332 171.581C270.332 171.854 270.313 172.128 270.301 172.404C270.247 173.737 270.124 175.067 269.933 176.387C269.681 178.19 269.24 179.961 268.616 181.671C268.203 182.796 267.677 183.876 267.046 184.895C266.487 185.8 265.832 186.643 265.093 187.408C263.268 189.304 260.64 189.909 258.097 190.708C256.926 191.046 255.796 191.508 254.723 192.084C254.531 192.191 254.343 192.306 254.16 192.428L250.978 194.533C249.987 195.187 248.973 195.864 248.292 196.833C248.18 196.998 248.079 197.17 247.988 197.347C247.557 198.239 247.242 199.183 247.051 200.155C245.396 207.04 243.738 213.931 242.603 220.92C242.527 221.381 242.454 221.846 242.375 222.311L242.348 222.457C242.334 222.423 242.318 222.389 242.299 222.357C234.159 227.273 225.717 231.709 217.02 235.261L215.131 219.461C214.934 218.177 214.869 216.876 214.936 215.578C215.115 213.533 215.949 211.594 216.174 209.556C216.387 207.56 216.01 205.545 215.088 203.761C214.729 203.068 214.279 202.388 214.197 201.613C214.115 200.838 214.562 200.13 215.341 200.051C215.949 199.377 215.998 198.456 215.818 197.545C215.723 197.069 215.58 196.603 215.392 196.156C214.875 194.886 214.221 193.503 214.665 192.206C214.783 191.971 214.835 191.708 214.817 191.446C214.821 191.43 214.821 191.414 214.817 191.398C214.714 191.057 214.309 190.908 214.099 190.62C213.704 190.082 214.099 189.35 214.343 188.73C214.579 188.064 214.717 187.367 214.75 186.661C214.784 186.269 214.808 185.874 214.851 185.485C214.91 184.958 215.005 184.437 215.134 183.923C215.873 181.012 217.65 178.471 220.132 176.776C221.315 175.98 222.632 175.4 223.84 174.649C225.077 173.816 226.258 172.903 227.375 171.915C230.054 169.687 232.839 167.586 235.731 165.613C238.841 163.492 242.062 161.538 245.381 159.761C246.091 159.378 246.8 159.005 247.51 158.643C248.283 158.238 249.061 157.854 249.844 157.491C252.35 156.297 255.194 156.744 257.966 157.54C259.128 157.871 260.275 158.266 261.382 158.624C262.463 158.976 263.504 159.442 264.485 160.016C266.94 161.456 268.969 163.583 269.812 166.269C269.813 166.286 269.813 166.304 269.812 166.321C270.347 168.004 270.38 169.809 270.332 171.581Z" fill="black"/>
<path id="Vector_38" d="M241.447 121.251C241.417 121.18 241.372 121.117 241.316 121.064C241.26 121.011 241.194 120.97 241.121 120.943C241.049 120.917 240.972 120.905 240.895 120.909C240.818 120.912 240.743 120.932 240.674 120.965C240.604 120.999 240.542 121.046 240.492 121.104C240.441 121.162 240.403 121.23 240.379 121.303C240.355 121.376 240.347 121.454 240.354 121.53C240.36 121.607 240.383 121.682 240.419 121.749L240.115 121.898L249.186 140.469L250.826 139.67L241.755 121.087L241.447 121.251Z" fill="#3F3D56"/>
<path id="Vector_39" d="M252.788 101.799C263.541 101.799 272.257 93.0922 272.257 82.3522C272.257 71.6123 263.541 62.9059 252.788 62.9059C242.036 62.9059 233.319 71.6123 233.319 82.3522C233.319 93.0922 242.036 101.799 252.788 101.799Z" fill="#FBBEBE"/>
<path id="Vector_40" d="M278.484 70.3137C278.393 68.7679 278.163 67.2333 277.797 65.7286C276.653 60.8154 274.563 55.9781 270.964 52.4504C270.743 51.5879 270.478 50.7371 270.17 49.9011C270.165 49.8804 270.158 49.8601 270.149 49.8404C269.076 46.8954 267.524 44.1473 265.556 41.7063C264.415 40.2904 262.936 38.8927 261.117 38.838C260.606 38.8197 260.065 38.9079 259.596 38.6739C259.252 38.4514 258.962 38.1544 258.748 37.8049C257.847 36.6678 256.652 35.7982 255.292 35.29C253.933 34.7818 252.46 34.6544 251.033 34.9214L250.844 34.9609C250.738 34.9821 250.631 35.0064 250.54 35.0338C250.449 35.0611 250.285 35.1067 250.157 35.1462C250.297 35.3771 250.434 35.6111 250.568 35.8481C250.929 36.4902 251.263 37.1465 251.571 37.817C251.827 38.3761 252.063 38.9443 252.28 39.5216C249.165 39.8771 246.628 42.0861 244.31 44.1888L238.853 49.1354C238.843 49.1438 238.834 49.1529 238.825 49.1628L238.667 49.3147C238.627 49.3542 238.588 49.3937 238.551 49.4362C238.537 49.4489 238.523 49.4632 238.512 49.4788C238.466 49.5274 238.424 49.579 238.381 49.6307C238.305 49.7264 238.237 49.828 238.177 49.9346C238.147 49.9802 238.121 50.0279 238.098 50.0774C238.09 50.0919 238.083 50.1072 238.077 50.1229C238.057 50.1644 238.04 50.207 238.025 50.2506C238.024 50.2566 238.024 50.2628 238.025 50.2688C238.017 50.2937 238.01 50.319 238.004 50.3447C237.942 50.5586 237.96 50.7877 238.056 50.9889L241.654 51.0284H242.077C242.095 51.5085 242.111 51.9916 242.129 52.4717C241.558 52.8986 241.01 53.355 240.486 53.839C239.916 54.3666 239.38 54.931 238.883 55.5284C235.637 59.445 233.943 64.5041 233.772 69.5966C233.772 69.7546 233.772 69.9005 233.772 70.0646C233.772 70.5294 233.772 70.9943 233.772 71.4562C233.772 71.76 233.8 72.0639 233.824 72.3677C233.826 72.7635 233.93 73.1521 234.128 73.495C234.154 73.5333 234.183 73.5699 234.213 73.6044C234.396 73.8023 234.615 73.9632 234.858 74.0784L235.12 74.206C235.251 74.2698 235.376 74.3306 235.497 74.4005C236.644 75.0477 237.322 76.2965 238.366 77.0987C238.427 77.1443 238.488 77.1898 238.548 77.2293L238.685 77.3205L238.77 77.3752L238.886 77.442C238.962 77.4877 239.04 77.5293 239.12 77.5666L239.266 77.6395H239.291C239.412 77.6942 239.534 77.7459 239.659 77.7915L239.832 77.8522L239.884 77.8704C239.933 77.8856 239.984 77.9039 240.036 77.916C240.139 77.9464 240.241 77.9738 240.34 77.9981L240.644 78.0649C240.763 78.0862 240.885 78.1075 241.006 78.1226L241.186 78.1469L241.368 78.1652C241.658 78.1915 241.95 78.2067 242.244 78.2108C243.167 78.2051 244.089 78.1411 245.004 78.0193L252.767 77.1078C254.528 76.9042 256.326 76.7006 258.063 77.0592C259.535 77.363 260.892 78.0619 262.322 78.5571C262.644 78.6696 262.967 78.7729 263.292 78.861C263.411 78.8944 263.533 78.9309 263.654 78.9613L263.822 79.0038L264.211 79.098C264.351 79.1314 264.491 79.1648 264.631 79.1922C264.829 79.2347 265.023 79.2712 265.221 79.3077C265.355 79.335 265.492 79.3563 265.629 79.3806H265.656L266.045 79.4413H266.14L266.429 79.4809C266.569 79.5021 266.709 79.5204 266.852 79.5355C267.162 79.574 267.472 79.6074 267.782 79.6358C268.284 79.6844 268.789 79.7209 269.304 79.7513L269.808 79.7817L270.313 79.806L271.834 79.8728H271.901H272.114C272.747 79.9168 273.382 79.8842 274.007 79.7756C274.116 79.7543 274.223 79.73 274.329 79.6996C274.435 79.6692 274.524 79.6389 274.633 79.6024C275.774 79.1648 276.607 78.1591 277.185 77.0835C277.307 76.8556 277.42 76.6277 277.523 76.3937C277.627 76.1598 277.721 75.9228 277.806 75.6858C277.913 75.3819 278.004 75.0933 278.083 74.7894C278.107 74.7074 278.128 74.6253 278.147 74.5403C278.165 74.4552 278.208 74.2881 278.232 74.1604C278.308 73.811 278.366 73.4585 278.408 73.103C278.408 72.9906 278.436 72.8752 278.448 72.7627C278.475 72.4589 278.497 72.1763 278.509 71.8785C278.509 71.6537 278.509 71.4258 278.509 71.1979C278.506 70.9518 278.484 70.6267 278.484 70.3137ZM270.685 52.1739C270.438 51.943 270.186 51.7212 269.93 51.5115C270.214 51.6908 270.468 51.9144 270.682 52.1739H270.685Z" fill="#464353"/>
<path id="Vector_41" d="M215.423 81.2827C213.132 81.0001 210.86 79.9974 208.599 80.4897C207.185 80.7935 205.968 81.6716 204.836 82.5741C200.625 85.9455 197.044 90.0345 194.259 94.6521C193.787 95.3425 193.455 96.1188 193.283 96.937C193.137 97.885 193.395 98.8482 193.702 99.7567C195.783 105.898 200.234 111.027 202.26 117.186C204.389 123.664 203.65 130.743 202.08 137.379C200.134 145.572 196.972 153.427 192.699 160.685C192.118 161.764 191.392 162.758 190.539 163.638C189.431 164.701 187.944 165.461 187.287 166.853C186.983 167.46 186.894 168.153 186.678 168.803C186.07 170.627 184.598 172.188 184.455 174.112C184.348 175.579 185.045 176.968 185.468 178.366C186.181 180.767 186.105 183.333 185.252 185.688C183.709 189.912 179.676 193.752 180.847 198.094C183.46 197.344 186.356 196.369 187.588 193.947C188.023 193.09 188.239 192.069 188.972 191.443C190.435 190.2 192.927 191.325 194.481 190.182C195.655 189.313 195.698 187.533 195.175 186.165C194.652 184.798 193.751 183.595 193.35 182.188C192.65 179.651 193.769 176.968 193.563 174.346C193.465 173.13 193.091 171.966 193.064 170.757C193.012 168.408 194.314 166.199 196.045 164.604C197.776 163.009 199.914 161.952 202.019 160.909L209.977 156.959C212.864 155.531 216.028 153.79 216.974 150.715C217.333 149.564 217.336 148.336 217.354 147.133C217.625 128.747 222.237 110.732 226.821 92.9232C227.533 90.1642 228.257 87.3931 229.316 84.7436C230.374 82.094 232.446 79.9671 233.502 77.5059C227.378 76.7888 221.784 82.0788 215.423 81.2827Z" fill="#464353"/>
<path id="Vector_42" d="M259.292 196.627C259.995 200.881 260.424 205.226 260.758 209.55C255.283 214.083 249.387 218.027 243.397 221.685C243.057 221.895 242.713 222.102 242.369 222.293L242.342 222.439C242.328 222.404 242.312 222.371 242.293 222.339C241.828 221.336 241.016 220.535 240.006 220.084C237.761 215.374 235.518 210.665 233.277 205.955C232.06 203.412 230.843 200.844 230.234 198.1C230.234 198.043 230.207 197.982 230.198 197.924C229.736 195.797 229.629 193.588 229.322 191.434C229.166 190.2 228.888 188.985 228.491 187.806C228.126 186.758 227.624 185.74 227.18 184.716C226.633 183.452 226.173 182.173 226.152 180.808C226.152 180.374 226.179 179.897 225.966 179.532C225.739 179.218 225.458 178.947 225.136 178.73C224.734 178.374 224.43 177.923 224.251 177.417C224.072 176.912 224.025 176.369 224.114 175.84C222.289 175.935 221.26 177.895 220.527 179.557C219.861 181.182 218.985 182.714 217.923 184.114C217.149 185.114 216.165 185.933 215.039 186.512C214.939 186.56 214.839 186.609 214.735 186.651C212.195 187.77 209.229 187.375 206.476 186.87C204.07 186.43 201.581 185.883 199.647 184.388L199.44 184.224C198.867 183.748 198.356 183.203 197.919 182.601C196.297 180.389 195.579 177.475 195.181 174.701C195.144 174.44 195.108 174.178 195.074 173.917C194.798 171.957 194.721 169.974 194.846 167.998C194.883 167.512 194.935 167.026 194.998 166.543C195.041 166.239 195.087 165.911 195.138 165.595C195.137 165.586 195.137 165.576 195.138 165.567C195.217 165.066 195.303 164.562 195.388 164.048C195.692 162.325 195.996 160.557 196.909 159.074C197.509 158.151 198.267 157.341 199.148 156.68C199.476 156.422 199.814 156.175 200.155 155.938C200.708 155.556 201.277 155.191 201.855 154.848C203.309 153.978 204.836 153.236 206.418 152.629C206.795 152.484 207.179 152.347 207.562 152.216C209.052 151.687 210.656 151.56 212.21 151.849C213.588 152.048 214.98 152.129 216.372 152.092C219.94 152.022 223.524 151.341 227.086 150.901C232.032 150.293 237.347 150.22 241.66 152.724C241.867 152.842 242.068 152.967 242.269 153.097C244.398 154.489 246.114 156.44 247.498 158.618C247.802 159.077 248.067 159.548 248.329 160.025C248.932 161.12 249.477 162.246 249.962 163.398C250.249 163.964 250.404 164.587 250.415 165.221C250.408 165.342 250.392 165.461 250.367 165.58C250.285 166.011 250.12 166.43 250.063 166.868C249.871 168.524 251.279 169.906 251.806 171.483C252.146 172.51 252.11 173.61 252.302 174.692C252.578 176.211 253.324 177.579 253.993 178.946C255.05 181.147 255.955 183.418 256.7 185.743C257.23 187.362 257.683 189.006 258.081 190.665C258.211 191.198 258.334 191.732 258.45 192.267C258.781 193.737 259.052 195.177 259.292 196.627Z" fill="#F86D70"/>
<path id="Vector_43" d="M291.726 151.63V153.757L291.334 153.751L290.896 153.745L286.004 153.684L273.952 153.526L270.569 153.483L269.693 153.471L264.616 153.407L257.461 153.313L242.281 153.116L215.94 152.775L206.433 152.654L202.619 152.605L199.108 152.56L196.921 152.529L194.849 152.502L179.49 152.304L175.231 152.25L174.303 152.238L173.701 150.685L169.323 139.409L168.523 137.349L169.132 134.918L171.87 136.741L173.555 136.951L201.302 140.396L206.51 141.044L217.552 142.417L228.37 143.76L232.61 144.286L257.704 147.403L264.716 148.275L270.52 148.995L291.158 151.56L291.726 151.63Z" fill="#3F3D56"/>
<path id="Vector_44" d="M169.132 134.918L174.608 149.199L291.726 151.63V136.133L169.132 134.918Z" fill="#504F60"/>
<path id="Vector_45" d="M175.216 150.718L176.129 237.923L180.387 237.315L179.475 150.718H175.216Z" fill="#3F3D56"/>
<path id="Vector_46" d="M291.334 153.748H290.896C290.187 159.184 289.013 164.551 287.388 169.788L286.004 153.684L285.947 152.997L291.063 152.408L291.234 152.389L291.334 153.748Z" fill="#3F3D56"/>
<path id="Vector_47" d="M274.691 143.426L230.125 144.337L216.284 139.78L253.397 137.653L274.691 143.426Z" fill="white"/>
<path id="Vector_48" d="M218.787 125.705C218.315 125.887 217.896 126.185 217.57 126.571C217.316 126.991 217.161 127.463 217.117 127.951L216.369 132.408C216.255 132.816 216.275 133.25 216.427 133.645C216.621 134.019 217.187 134.213 217.47 133.903C217.434 134.775 217.51 135.705 218.018 136.416C218.526 137.127 219.59 137.501 220.308 137.006C220.421 137.189 220.572 137.345 220.751 137.465C220.93 137.584 221.133 137.662 221.346 137.695C221.559 137.728 221.776 137.715 221.983 137.655C222.19 137.596 222.381 137.493 222.544 137.352C222.112 137.498 222.082 138.157 222.389 138.491C222.733 138.795 223.172 138.97 223.63 138.987C228.976 139.739 234.426 139.054 239.418 137.003C239.89 136.808 238.649 131.002 238.524 130.406C238.22 129.005 238.068 127.295 236.884 126.353C234.055 124.098 229.03 123.655 225.583 123.922C223.228 124.1 220.926 124.704 218.787 125.705Z" fill="#FBBEBE"/>
<path id="Vector_49" opacity="0.1" d="M264.132 126.38C253.129 126.59 241.898 126.769 231.397 123.478C232.4 127.361 232.33 131.442 231.196 135.289L282.643 139.543C284.824 139.722 293.868 140.743 295.994 140.229C298.121 139.716 278.153 133.147 278.959 131.114C281.177 125.514 288.605 122.232 283.254 122.023C276.501 121.755 270.937 126.252 264.132 126.38Z" fill="black"/>
<path id="Vector_50" d="M264.436 126.988C253.433 127.197 242.202 127.377 231.701 124.086C232.704 127.969 232.634 132.05 231.5 135.897L282.947 140.15C285.128 140.33 294.172 141.366 296.299 140.837C298.425 140.308 297.926 137.704 298.732 135.672C300.95 130.072 288.91 122.84 283.559 122.63C276.805 122.363 271.241 126.86 264.436 126.988Z" fill="#464353"/>
<path id="Vector_51" d="M246.941 127.832C247.414 128.013 247.833 128.311 248.158 128.698C248.412 129.118 248.568 129.59 248.615 130.078L249.363 134.535C249.475 134.943 249.455 135.376 249.305 135.772C249.11 136.146 248.542 136.34 248.262 136.03C248.295 136.902 248.222 137.832 247.714 138.543C247.206 139.254 246.141 139.628 245.42 139.133C245.308 139.316 245.157 139.472 244.977 139.592C244.798 139.711 244.595 139.789 244.383 139.822C244.17 139.855 243.953 139.842 243.746 139.782C243.539 139.723 243.347 139.62 243.184 139.479C243.616 139.625 243.65 140.284 243.343 140.618C242.997 140.922 242.558 141.097 242.098 141.114C236.754 141.866 231.305 141.181 226.313 139.13C225.842 138.935 227.08 133.129 227.208 132.533C227.512 131.132 227.664 129.422 228.847 128.48C231.673 126.225 236.702 125.781 240.148 126.049C242.502 126.227 244.804 126.832 246.941 127.832Z" fill="#FBBEBE"/>
<path id="Vector_52" d="M174.236 118.155C173.226 119.455 172.213 120.783 171.562 122.299C170.318 125.192 170.501 128.467 170.708 131.609C170.765 132.521 170.838 133.45 171.316 134.207C171.729 134.779 172.274 135.242 172.904 135.559C175.538 137.054 178.623 137.501 181.635 137.835C186.246 138.345 190.874 138.656 195.519 138.768C207.024 139.047 218.705 138.108 229.912 140.712C228.525 138.607 228.528 135.82 229.304 133.42C230.079 131.02 231.573 128.929 233.036 126.872C227.907 125.25 222.407 127.784 217.035 127.532C211.52 127.273 206.415 124.089 200.894 124.092C199.708 124.092 198.5 124.241 197.347 123.955C196.194 123.67 195.078 122.801 194.971 121.619C196.443 121.95 197.84 120.692 198.448 119.312C199.057 117.933 199.166 116.374 199.756 114.986C201.226 111.531 205.195 109.93 207.666 107.086C208.055 106.636 208.423 106.104 208.411 105.509C208.353 105.004 208.14 104.53 207.802 104.15C205.749 101.416 202.655 99.8964 200.085 97.7695C199.19 97.0281 197.386 94.2327 196.383 93.9744C194.521 93.4974 192.942 96.1834 191.731 97.493C185.619 104.127 179.787 111.014 174.236 118.155Z" fill="#464353"/>
<path id="Vector_53" opacity="0.07" d="M235.406 117.383C236.177 117.954 236.862 118.633 237.441 119.398C237.729 119.782 237.935 120.222 238.044 120.689C238.154 121.157 238.165 121.642 238.077 122.114C237.982 121.233 238.179 120.346 238.637 119.587C239.094 118.829 239.787 118.24 240.611 117.912L235.406 117.383Z" fill="black"/>
<g id="Group_2" opacity="0.1">
<path id="Vector_54" opacity="0.1" d="M252.277 37.7016C251.919 36.7519 251.507 35.8236 251.042 34.9214C250.742 34.9791 250.445 35.0552 250.154 35.1493C250.676 36.0152 251.146 36.911 251.562 37.8323C251.797 37.7715 252.034 37.729 252.277 37.7016Z" fill="black"/>
<path id="Vector_55" opacity="0.1" d="M269.927 49.6824C270.009 49.7492 270.088 49.8252 270.167 49.8951C270.162 49.8753 270.155 49.8561 270.146 49.8373C270.077 49.7867 270.004 49.735 269.927 49.6824Z" fill="black"/>
<path id="Vector_56" opacity="0.1" d="M241.648 51.0194C241.806 50.8948 241.952 50.7641 242.123 50.6426L242.074 49.1993L238.825 49.1659C238.299 49.649 237.739 50.3418 238.05 50.989L241.648 51.0194Z" fill="black"/>
<path id="Vector_57" opacity="0.1" d="M277.167 75.3151C276.589 76.3907 275.756 77.3995 274.615 77.834C273.736 78.1683 272.768 78.1379 271.828 78.0954C268.622 77.9647 265.361 77.8219 262.331 76.7614C260.914 76.2631 259.557 75.5673 258.072 75.2604C256.335 74.9019 254.537 75.1055 252.776 75.3121L245.013 76.2236C242.722 76.491 240.17 76.6916 238.342 75.2878C237.295 74.4856 236.62 73.2368 235.473 72.5926C234.989 72.3192 234.414 72.1429 234.101 71.6811C233.903 71.3381 233.798 70.9496 233.797 70.5538C233.772 70.2348 233.757 69.9157 233.745 69.5967C233.712 70.5237 233.729 71.4518 233.797 72.3769C233.798 72.7727 233.903 73.1612 234.101 73.5042C234.405 73.963 234.989 74.1392 235.473 74.4157C236.62 75.0599 237.298 76.3087 238.342 77.1109C240.167 78.5147 242.722 78.3263 245.013 78.0467L252.776 77.1352C254.537 76.9286 256.335 76.725 258.072 77.0835C259.545 77.3874 260.901 78.0862 262.331 78.5845C265.373 79.645 268.622 79.7999 271.828 79.9184C272.768 79.9579 273.736 79.9914 274.615 79.6571C275.756 79.2226 276.589 78.2138 277.167 77.1382C278.287 75.0568 278.6 72.6959 278.481 70.3168C278.416 72.0591 277.967 73.7657 277.167 75.3151Z" fill="black"/>
</g>
<path id="Vector_58" opacity="0.1" d="M252.189 39.6554L256.448 43.6054C256.448 43.6054 252.797 42.0862 252.189 39.6554Z" fill="black"/>
</g>
<defs>
<clipPath id="clip0_38_4">
<rect width="299" height="244" fill="white"/>
</clipPath>
</defs>
</svg>
