<svg width="283" height="205" viewBox="0 0 283 205" fill="none" xmlns="http://www.w3.org/2000/svg">
<g id="undraw_education_f8ru 1">
<path id="Vector" d="M180.342 153.682V203.099H56.4537C42.3383 203.099 30.8539 192.015 30.8539 178.391C30.8539 164.767 42.3383 153.682 56.4537 153.682H180.342Z" fill="#F2F2F2"/>
<path id="Vector_2" d="M183.385 202.719C183.385 203.223 183.184 203.707 182.828 204.063C182.471 204.419 181.987 204.62 181.483 204.62H54.2471C47.3366 204.62 40.7093 201.876 35.8229 196.993C30.9364 192.11 28.1913 185.487 28.1913 178.581C28.1913 171.675 30.9364 165.052 35.8229 160.168C40.7093 155.285 47.3366 152.542 54.2471 152.542H181.483C181.987 152.542 182.471 152.742 182.828 153.098C183.184 153.455 183.385 153.938 183.385 154.442C183.385 154.946 183.184 155.43 182.828 155.786C182.471 156.143 181.987 156.343 181.483 156.343H54.2471C48.3455 156.343 42.6856 158.686 38.5125 162.856C34.3394 167.027 31.995 172.683 31.995 178.581C31.995 184.479 34.3394 190.135 38.5125 194.305C42.6856 198.476 48.3455 200.819 54.2471 200.819H181.483C181.987 200.819 182.471 201.019 182.828 201.375C183.184 201.732 183.385 202.215 183.385 202.719Z" fill="black"/>
<path id="Vector_3" d="M180.342 165.086H47.2101C47.1092 165.086 47.0125 165.046 46.9411 164.975C46.8698 164.903 46.8297 164.807 46.8297 164.706C46.8297 164.605 46.8698 164.508 46.9411 164.437C47.0125 164.366 47.1092 164.326 47.2101 164.326H180.342C180.443 164.326 180.539 164.366 180.611 164.437C180.682 164.508 180.722 164.605 180.722 164.706C180.722 164.807 180.682 164.903 180.611 164.975C180.539 165.046 180.443 165.086 180.342 165.086Z" fill="#CCCCCC"/>
<path id="Vector_4" d="M180.342 174.209H47.2101C47.1092 174.209 47.0125 174.169 46.9411 174.098C46.8698 174.027 46.8297 173.93 46.8297 173.829C46.8297 173.728 46.8698 173.632 46.9411 173.56C47.0125 173.489 47.1092 173.449 47.2101 173.449H180.342C180.443 173.449 180.539 173.489 180.611 173.56C180.682 173.632 180.722 173.728 180.722 173.829C180.722 173.93 180.682 174.027 180.611 174.098C180.539 174.169 180.443 174.209 180.342 174.209Z" fill="#CCCCCC"/>
<path id="Vector_5" d="M180.342 183.333H47.2101C47.1092 183.333 47.0125 183.292 46.9411 183.221C46.8698 183.15 46.8297 183.053 46.8297 182.952C46.8297 182.852 46.8698 182.755 46.9411 182.684C47.0125 182.612 47.1092 182.572 47.2101 182.572H180.342C180.443 182.572 180.539 182.612 180.611 182.684C180.682 182.755 180.722 182.852 180.722 182.952C180.722 183.053 180.682 183.15 180.611 183.221C180.539 183.292 180.443 183.333 180.342 183.333Z" fill="#CCCCCC"/>
<path id="Vector_6" d="M180.342 192.456H47.2101C47.1092 192.456 47.0125 192.416 46.9411 192.344C46.8698 192.273 46.8297 192.176 46.8297 192.076C46.8297 191.975 46.8698 191.878 46.9411 191.807C47.0125 191.735 47.1092 191.695 47.2101 191.695H180.342C180.443 191.695 180.539 191.735 180.611 191.807C180.682 191.878 180.722 191.975 180.722 192.076C180.722 192.176 180.682 192.273 180.611 192.344C180.539 192.416 180.443 192.456 180.342 192.456Z" fill="#CCCCCC"/>
<path id="Vector_7" d="M276.089 162.984L245.064 201.465L148.595 123.784C137.603 114.934 135.62 99.1015 144.173 88.4928C152.727 77.884 168.629 76.4536 179.62 85.3042L276.089 162.984Z" fill="#F2F2F2"/>
<path id="Vector_8" d="M247.672 203.076C247.355 203.469 246.896 203.72 246.394 203.773C245.893 203.827 245.391 203.68 244.998 203.364L145.922 123.585C140.541 119.252 137.102 112.96 136.363 106.094C135.624 99.2274 137.645 92.3488 141.981 86.9712C146.316 81.5937 152.612 78.1576 159.483 77.419C166.354 76.6803 173.237 78.6996 178.618 83.0326L277.694 162.812C277.888 162.968 278.05 163.162 278.17 163.381C278.29 163.6 278.365 163.84 278.392 164.089C278.419 164.337 278.397 164.588 278.326 164.828C278.256 165.067 278.139 165.291 277.982 165.485C277.825 165.679 277.632 165.841 277.413 165.961C277.193 166.08 276.953 166.156 276.704 166.182C276.456 166.209 276.204 166.186 275.965 166.116C275.725 166.046 275.502 165.929 275.307 165.772L176.231 85.9926C173.956 84.159 171.341 82.7913 168.537 81.9677C165.733 81.1441 162.793 80.8807 159.887 81.1925C156.981 81.5044 154.165 82.3854 151.599 83.7852C149.034 85.185 146.77 87.0762 144.936 89.3508C143.102 91.6253 141.734 94.2387 140.911 97.0415C140.088 99.8444 139.826 102.782 140.139 105.686C140.452 108.59 141.335 111.404 142.737 113.968C144.138 116.531 146.032 118.793 148.308 120.625L247.384 200.404C247.777 200.72 248.028 201.18 248.082 201.681C248.136 202.182 247.988 202.684 247.672 203.076Z" fill="#CCCCCC"/>
<path id="Vector_9" d="M268.93 171.864L165.262 88.3883C165.224 88.357 165.191 88.3183 165.167 88.2745C165.143 88.2307 165.128 88.1826 165.123 88.1329C165.118 88.0833 165.122 88.0331 165.136 87.9852C165.15 87.9373 165.174 87.8927 165.205 87.8538C165.236 87.8149 165.275 87.7826 165.319 87.7587C165.363 87.7347 165.411 87.7197 165.46 87.7143C165.51 87.709 165.56 87.7135 165.608 87.7275C165.656 87.7416 165.701 87.765 165.74 87.7963L269.407 171.272C269.446 171.304 269.478 171.342 269.502 171.386C269.526 171.43 269.541 171.478 269.547 171.528C269.552 171.577 269.548 171.628 269.534 171.676C269.519 171.724 269.496 171.768 269.465 171.807C269.433 171.846 269.395 171.878 269.351 171.902C269.307 171.926 269.259 171.941 269.209 171.947C269.159 171.952 269.109 171.947 269.061 171.933C269.013 171.919 268.968 171.896 268.93 171.864V171.864Z" fill="#CCCCCC"/>
<path id="Vector_10" d="M263.202 178.968L159.535 95.4924C159.456 95.4291 159.406 95.3372 159.395 95.2371C159.385 95.1369 159.414 95.0366 159.478 94.9582C159.541 94.8797 159.633 94.8296 159.733 94.8187C159.833 94.8079 159.933 94.8373 160.012 94.9004L263.679 178.376C263.718 178.408 263.75 178.446 263.774 178.49C263.798 178.534 263.814 178.582 263.819 178.632C263.824 178.681 263.82 178.732 263.806 178.78C263.792 178.828 263.768 178.872 263.737 178.911C263.706 178.95 263.667 178.982 263.623 179.006C263.579 179.03 263.531 179.045 263.481 179.051C263.432 179.056 263.381 179.051 263.333 179.037C263.285 179.023 263.241 179 263.202 178.968Z" fill="#CCCCCC"/>
<path id="Vector_11" d="M257.474 186.072L153.807 102.596C153.728 102.533 153.678 102.441 153.667 102.341C153.657 102.241 153.686 102.14 153.749 102.062C153.813 101.983 153.905 101.933 154.005 101.922C154.105 101.912 154.206 101.941 154.284 102.004L257.951 185.48C257.99 185.512 258.023 185.55 258.046 185.594C258.07 185.638 258.085 185.686 258.091 185.736C258.096 185.785 258.092 185.836 258.078 185.884C258.064 185.931 258.04 185.976 258.009 186.015C257.977 186.054 257.939 186.086 257.895 186.11C257.851 186.134 257.803 186.149 257.753 186.154C257.704 186.16 257.653 186.155 257.605 186.141C257.558 186.127 257.513 186.104 257.474 186.072V186.072Z" fill="#CCCCCC"/>
<path id="Vector_12" d="M251.746 193.176L148.079 109.7C148.04 109.669 148.008 109.63 147.984 109.587C147.96 109.543 147.945 109.495 147.94 109.445C147.934 109.395 147.939 109.345 147.953 109.297C147.967 109.249 147.99 109.205 148.022 109.166C148.053 109.127 148.092 109.095 148.136 109.071C148.179 109.047 148.228 109.032 148.277 109.026C148.327 109.021 148.377 109.026 148.425 109.04C148.473 109.054 148.518 109.077 148.557 109.108L252.224 192.584C252.263 192.616 252.295 192.654 252.319 192.698C252.343 192.742 252.358 192.79 252.363 192.84C252.369 192.889 252.364 192.94 252.35 192.988C252.336 193.036 252.313 193.08 252.281 193.119C252.25 193.158 252.211 193.19 252.167 193.214C252.124 193.238 252.075 193.253 252.026 193.259C251.976 193.264 251.926 193.259 251.878 193.245C251.83 193.231 251.785 193.208 251.746 193.176Z" fill="#CCCCCC"/>
<path id="Vector_13" d="M282.62 205H0.380376C0.279494 205 0.182744 204.96 0.111409 204.889C0.040075 204.817 0 204.721 0 204.62C0 204.519 0.040075 204.422 0.111409 204.351C0.182744 204.28 0.279494 204.24 0.380376 204.24H282.62C282.72 204.24 282.817 204.28 282.889 204.351C282.96 204.422 283 204.519 283 204.62C283 204.721 282.96 204.817 282.889 204.889C282.817 204.96 282.72 205 282.62 205Z" fill="#CCCCCC"/>
<path id="Vector_14" d="M128.598 148.488L124.25 148.488L122.181 131.725L128.6 131.726L128.598 148.488Z" fill="#FFB8B8"/>
<path id="Vector_15" d="M121.143 147.246H129.53V152.523H115.863C115.863 151.83 115.999 151.144 116.265 150.504C116.53 149.863 116.919 149.282 117.409 148.792C117.9 148.302 118.482 147.913 119.122 147.648C119.763 147.382 120.45 147.246 121.143 147.246Z" fill="#2F2E41"/>
<path id="Vector_16" d="M84.172 148.488L79.8235 148.488L77.7554 131.725L84.1735 131.726L84.172 148.488Z" fill="#FFB8B8"/>
<path id="Vector_17" d="M76.7173 147.246H85.1038V152.523H71.437C71.4369 151.83 71.5735 151.144 71.8389 150.504C72.1043 149.863 72.4932 149.282 72.9835 148.792C73.4739 148.302 74.056 147.913 74.6966 147.648C75.3372 147.382 76.0239 147.246 76.7173 147.246Z" fill="#2F2E41"/>
<path id="Vector_18" d="M98.6966 24.1509V22.2502C98.6966 18.9989 99.989 15.8807 102.29 13.5816C104.59 11.2826 107.71 9.99097 110.964 9.99097H110.964C114.217 9.99097 117.337 11.2826 119.638 13.5816C121.938 15.8807 123.231 18.9989 123.231 22.2502V24.1509C123.231 26.4949 122.299 28.7429 120.641 30.4004C118.982 32.0578 116.733 32.989 114.387 32.989H107.54C106.379 32.989 105.229 32.7604 104.156 32.3162C103.083 31.8721 102.108 31.2211 101.287 30.4004C100.466 29.5797 99.8142 28.6054 99.3698 27.5331C98.9253 26.4608 98.6966 25.3116 98.6966 24.1509Z" fill="#2F2E41"/>
<path id="Vector_19" d="M110.964 33.6431C116.123 33.6431 120.306 29.463 120.306 24.3067C120.306 19.1503 116.123 14.9702 110.964 14.9702C105.804 14.9702 101.621 19.1503 101.621 24.3067C101.621 29.463 105.804 33.6431 110.964 33.6431Z" fill="#FFB8B8"/>
<path id="Vector_20" d="M60.1469 56.3947C60.526 56.0369 60.979 55.7666 61.474 55.6027C61.969 55.4388 62.4939 55.3854 63.0118 55.4462C63.5296 55.507 64.0279 55.6805 64.4714 55.9546C64.9149 56.2286 65.2929 56.5965 65.5787 57.0323L73.5874 55.5184L75.695 60.1577L64.3552 62.137C63.5907 62.5683 62.6945 62.7045 61.8363 62.5196C60.9781 62.3347 60.2176 61.8417 59.6989 61.1338C59.1801 60.426 58.9392 59.5527 59.0218 58.6792C59.1044 57.8057 59.5047 56.9929 60.1469 56.3947V56.3947Z" fill="#FFB8B8"/>
<path id="Vector_21" d="M103.68 39.5228L103.785 39.6814L90.6521 48.3273L68.492 55.399C68.1982 55.4933 67.9463 55.6865 67.779 55.9455C67.6117 56.2046 67.5395 56.5137 67.5745 56.82L68.058 60.9812C68.0794 61.1653 68.1391 61.343 68.2333 61.5028C68.3274 61.6625 68.454 61.8008 68.6047 61.9089C68.7555 62.0169 68.9272 62.0922 69.1089 62.1301C69.2905 62.1679 69.478 62.1674 69.6594 62.1286L90.5154 57.661C91.5247 57.446 92.4791 57.0261 93.3193 56.4273L108.073 45.9368C108.608 45.5544 109.035 45.0402 109.312 44.4442C109.589 43.8482 109.707 43.1907 109.655 42.5356C109.601 41.8796 109.377 41.2489 109.005 40.7057C108.633 40.1624 108.126 39.7253 107.534 39.4373C106.941 39.1493 106.284 39.0204 105.627 39.0632C104.97 39.106 104.335 39.319 103.785 39.6814L103.68 39.5228Z" fill="#CCCCCC"/>
<path id="Vector_22" d="M124.327 143.731C123.993 143.731 123.667 143.634 123.387 143.452C123.108 143.27 122.888 143.01 122.753 142.705L102.818 93.477C102.771 93.3703 102.693 93.2803 102.594 93.2192C102.495 93.1582 102.379 93.129 102.263 93.1355C102.146 93.1421 102.035 93.1841 101.943 93.2559C101.851 93.3277 101.784 93.4259 101.75 93.5372L85.4853 141.462C85.4166 141.685 85.303 141.892 85.1515 142.069C85 142.247 84.8137 142.391 84.6042 142.494C84.3946 142.597 84.1662 142.656 83.933 142.668C83.6998 142.679 83.4667 142.643 83.2481 142.561L77.7941 140.517C77.498 140.407 77.2383 140.217 77.0438 139.969C76.8493 139.72 76.7275 139.422 76.6921 139.109C74.2385 117.748 95.6349 63.8312 95.8514 63.2892L95.9112 63.139L115.416 67.4508L115.456 67.495C123.238 75.9787 129.634 129.488 130.838 140.128C130.882 140.513 130.795 140.901 130.59 141.229C130.384 141.557 130.073 141.805 129.707 141.933L124.893 143.634C124.712 143.698 124.52 143.731 124.327 143.731Z" fill="#2F2E41"/>
<path id="Vector_23" d="M107.522 69.1862C102.796 69.1862 97.5278 68.2446 95.9061 64.3583L95.8687 64.269L95.9192 64.1862C97.1992 62.0873 98.891 58.5069 97.9817 57.8348C96.1904 56.5112 95.3212 54.3338 95.3984 51.3629C95.5659 44.9136 99.9631 39.1877 106.34 37.1146H106.34C108.12 36.5453 109.932 36.0792 111.766 35.7186C113.102 35.449 114.483 35.4787 115.807 35.8054C117.131 36.1322 118.366 36.748 119.424 37.6085C120.494 38.4747 121.36 39.5672 121.958 40.8074C122.557 42.0477 122.873 43.405 122.883 44.7818C122.95 51.674 121.889 61.2732 116.45 67.8636C116.196 68.1693 115.841 68.3754 115.449 68.4456C112.833 68.9186 110.181 69.1663 107.522 69.1862Z" fill="#CCCCCC"/>
<path id="Vector_24" d="M105.764 68.9281C106.021 68.0062 106.632 67.223 107.464 66.7486C108.296 66.2743 109.281 66.1471 110.206 66.3949C110.395 66.4476 110.579 66.5158 110.757 66.5987L116.838 61.0682L121.067 63.9155L112.371 71.606C111.978 72.3135 111.36 72.8695 110.615 73.1854C109.869 73.5013 109.04 73.5591 108.258 73.3495C107.802 73.2249 107.376 73.0113 107.004 72.7211C106.631 72.4308 106.32 72.0697 106.088 71.6586C105.856 71.2475 105.708 70.7945 105.653 70.3258C105.597 69.8571 105.635 69.3821 105.764 68.9281Z" fill="#FFB8B8"/>
<path id="Vector_25" d="M115.875 68.9984C115.48 68.9986 115.098 68.8623 114.792 68.6125L112.394 66.6541C112.194 66.4908 112.034 66.2845 111.925 66.0505C111.816 65.8166 111.762 65.5611 111.766 65.3031C111.77 65.0452 111.832 64.7914 111.948 64.5609C112.064 64.3305 112.231 64.1292 112.436 63.9722L122.494 56.2632C122.613 56.1714 122.691 56.0363 122.711 55.8872C122.731 55.7381 122.692 55.5871 122.601 55.4669L116.394 47.2651C115.672 46.3154 115.311 45.1413 115.372 43.9506C115.434 42.76 115.915 41.6295 116.731 40.7594C117.59 39.8323 118.767 39.2617 120.027 39.1609C121.287 39.0602 122.54 39.4366 123.535 40.2156L123.574 40.257L130.057 49.5331C130.758 50.0824 131.322 50.7861 131.706 51.5894C132.09 52.3927 132.283 53.2738 132.269 54.1639C132.256 55.054 132.037 55.9289 131.63 56.7205C131.222 57.512 130.637 58.1987 129.92 58.7268L116.894 68.663C116.599 68.8808 116.242 68.9984 115.875 68.9984Z" fill="#CCCCCC"/>
<path id="Vector_26" d="M102.688 21.6801V17.0478L110.964 13.4365L118.854 17.0478V21.6801C118.854 21.8818 118.774 22.0751 118.632 22.2177C118.489 22.3603 118.295 22.4404 118.094 22.4404H103.449C103.247 22.4404 103.054 22.3603 102.911 22.2177C102.769 22.0751 102.688 21.8818 102.688 21.6801Z" fill="#2F2E41"/>
<path id="Vector_27" d="M110.584 10.6055C109.367 6.71355 111.922 2.25315 115.7 0.7126C119.478 -0.827951 123.997 0.248942 127.185 2.79416C130.373 5.33938 132.351 9.15165 133.398 13.0924C134.446 17.0331 134.645 21.1424 134.839 25.2153C139.48 26.0674 142.638 31.569 141.03 36.0028C139.422 40.4367 133.471 42.6395 129.361 40.322C125.251 38.0046 124.06 31.7749 127.026 28.107C128.43 26.3714 129.214 24.2174 129.254 21.9863C129.295 19.7551 128.589 17.5743 127.249 15.7892C125.909 14.0041 124.012 12.7168 121.857 12.1311C119.702 11.5454 117.414 11.6949 115.354 12.5559C113.066 13.5119 110.196 11.028 110.584 10.6055Z" fill="#2F2E41"/>
<path id="Vector_28" d="M58.4312 38.4249C52.8741 38.3884 47.3865 37.1873 42.323 34.8992C42.0215 34.765 41.7657 34.546 41.5866 34.269C41.4075 33.992 41.3129 33.6689 41.3143 33.3391V19.4955C41.3148 19.042 41.4953 18.6072 41.8162 18.2865C42.1371 17.9658 42.5721 17.7854 43.0259 17.7849H73.8364C74.2902 17.7854 74.7253 17.9658 75.0462 18.2865C75.3671 18.6072 75.5476 19.042 75.5481 19.4955V33.3392C75.5495 33.669 75.4549 33.992 75.2758 34.269C75.0967 34.546 74.8408 34.765 74.5394 34.8992C69.4758 37.1874 63.9882 38.3884 58.4312 38.4249Z" fill="black"/>
<path id="Vector_29" d="M58.427 27.2098C58.1986 27.21 57.9724 27.1645 57.7618 27.0761L33.3295 16.7747C33.0144 16.6418 32.7464 16.4177 32.56 16.1313C32.3735 15.8448 32.2772 15.5091 32.2835 15.1674C32.2898 14.8257 32.3983 14.4937 32.5951 14.2142C32.7919 13.9348 33.068 13.7206 33.3877 13.5994L57.8204 4.33647C58.2139 4.18659 58.649 4.18752 59.0419 4.33907L83.1471 13.602C83.465 13.7242 83.7393 13.9384 83.9347 14.2172C84.1301 14.496 84.2378 14.8267 84.2441 15.167C84.2504 15.5074 84.155 15.8419 83.97 16.1277C83.785 16.4135 83.5189 16.6377 83.2057 16.7715L59.1002 27.0728C58.8873 27.1634 58.6583 27.21 58.427 27.2098Z" fill="black"/>
<path id="Vector_30" d="M44.1671 35.8411C45.4275 35.8411 46.4493 34.82 46.4493 33.5603C46.4493 32.3007 45.4275 31.2795 44.1671 31.2795C42.9066 31.2795 41.8848 32.3007 41.8848 33.5603C41.8848 34.82 42.9066 35.8411 44.1671 35.8411Z" fill="#3F3D56"/>
<path id="Vector_31" opacity="0.2" d="M83.289 15.3094L59.1834 25.6107C58.9955 25.691 58.7933 25.7326 58.5889 25.7331C58.3845 25.7336 58.1821 25.6929 57.9938 25.6135L33.5615 15.3124C33.2547 15.1861 32.9987 14.9613 32.834 14.6734C32.7263 14.8601 32.6595 15.0675 32.6381 15.282C32.6168 15.4964 32.6413 15.713 32.7101 15.9172C32.7789 16.1214 32.8904 16.3087 33.0372 16.4666C33.184 16.6245 33.3627 16.7494 33.5615 16.8329L57.9938 27.1341C58.1821 27.2135 58.3845 27.2541 58.5889 27.2536C58.7933 27.2531 58.9955 27.2115 59.1834 27.1312L83.289 16.8299C83.4868 16.7456 83.6644 16.6204 83.8102 16.4624C83.9559 16.3044 84.0665 16.1174 84.1346 15.9136C84.2027 15.7098 84.2268 15.4939 84.2053 15.2801C84.1837 15.0663 84.117 14.8595 84.0096 14.6733C83.8461 14.9589 83.5928 15.1825 83.289 15.3094Z" fill="black"/>
<path id="Vector_32" d="M44.3589 33.5514C44.4597 33.5514 44.5565 33.5114 44.6278 33.4401C44.6992 33.3688 44.7392 33.2721 44.7392 33.1713V20.4515L57.2845 15.8842C57.3854 15.8857 57.4827 15.8471 57.5551 15.7768C57.6275 15.7066 57.669 15.6105 57.6705 15.5097C57.6721 15.4089 57.6334 15.3116 57.5632 15.2392C57.4929 15.1669 57.3967 15.1254 57.2958 15.1239L44.7506 19.6912C44.6496 19.6889 44.5492 19.7071 44.4555 19.7447C44.3618 19.7823 44.2767 19.8385 44.2054 19.9099C44.1333 19.9804 44.076 20.0647 44.0371 20.1578C43.9981 20.2508 43.9782 20.3507 43.9785 20.4515V33.1713C43.9785 33.2721 44.0186 33.3688 44.0899 33.4401C44.1612 33.5113 44.258 33.5514 44.3589 33.5514Z" fill="#3F3D56"/>
</g>
</svg>
